<svg id="Layer_1" data-name="Layer 1" xmlns="http://www.w3.org/2000/svg" viewBox="0 0 194 70"><defs><style>.cls-1{fill:#ebc200;}.cls-2{fill:#dc9a40;}.cls-3{fill:#d88e0e;}.cls-4{fill:#212121;}</style></defs><title>Artboard 1</title><path id="_Path_" data-name="&lt;Path&gt;" class="cls-1" d="M.5,13.5v-.6A6.87,6.87,0,0,1,7.2,6H49.5l-28,28.3Z"/><path id="_Path_2" data-name="&lt;Path&gt;" class="cls-1" d="M21.5,34.5l-21-21v-.4A6.7,6.7,0,0,1,7.2,6.4H49.5Z"/><path id="_Path_3" data-name="&lt;Path&gt;" class="cls-2" d="M7.2,63A7.51,7.51,0,0,1,0,55.8v-.4L21.2,34.6,49.6,63Z"/><path id="_Path_4" data-name="&lt;Path&gt;" class="cls-2" d="M49.5,62.5H7.2A6.7,6.7,0,0,1,.5,55.8v-.4l21-21Z"/><polygon id="_Path_5" data-name="&lt;Path&gt;" class="cls-3" points="0 13.5 21 34.4 0 55.5 0 13.5"/><path id="_Path_6" data-name="&lt;Path&gt;" class="cls-3" d="M21.5,34.5l-21,21v-42Z"/><g id="_Group_" data-name="&lt;Group&gt;"><path id="_Path_7" data-name="&lt;Path&gt;" class="cls-4" d="M68.2,24.3h4.4v1.1l-8.2,9.8L72.6,45v1.1H68.2l-7.4-8.9H55.7v8.9h-4V24.3h4v8.9h5.1Z"/><path id="_Compound_Path_" data-name="&lt;Compound Path&gt;" class="cls-4" d="M89.5,28.6a4.1,4.1,0,0,1,4.1,4.1V46.1H80.1A4.1,4.1,0,0,1,76,42V35.4H89.8V32.8a.22.22,0,0,0-.2-.2H75.9v-4Zm.2,13.5V39.3H79.8v2.6a.22.22,0,0,0,.2.2Z"/><path id="_Path_8" data-name="&lt;Path&gt;" class="cls-4" d="M102.1,28.6h9.7v4h-9.7a.22.22,0,0,0-.2.2V46.2h-4V32.7a4,4,0,0,1,1.2-2.9A4.07,4.07,0,0,1,102.1,28.6Z"/><path id="_Compound_Path_2" data-name="&lt;Compound Path&gt;" class="cls-4" d="M129.7,28.6a4.1,4.1,0,0,1,4.1,4.1V46.1H120.2a4.1,4.1,0,0,1-4.1-4.1V35.4H130V32.8a.22.22,0,0,0-.2-.2H116.2v-4Zm.3,13.5V39.3h-9.9v2.6a.22.22,0,0,0,.2.2Z"/><path id="_Path_9" data-name="&lt;Path&gt;" class="cls-4" d="M152,28.6a4.1,4.1,0,0,1,4.1,4.1V46.1h-4V32.7a.22.22,0,0,0-.2-.2h-9.5a.22.22,0,0,0-.2.2V46.1h-4V28.6Z"/><path id="_Path_10" data-name="&lt;Path&gt;" class="cls-4" d="M171.7,32.5h-6.8v9.4a.22.22,0,0,0,.2.2h6.6v4h-6.6a4.07,4.07,0,0,1-3-1.2,4,4,0,0,1-1.2-2.9V22.8h4v5.7h6.8Z"/><path id="_Compound_Path_3" data-name="&lt;Compound Path&gt;" class="cls-4" d="M189.3,28.6a4.1,4.1,0,0,1,4.1,4.1V46.1H179.8a4.1,4.1,0,0,1-4.1-4.1V35.4h13.8V32.8a.22.22,0,0,0-.2-.2H175.7v-4Zm.2,13.5V39.3h-9.9v2.6a.22.22,0,0,0,.2.2Z"/></g></svg>