<svg id="Layer_1" data-name="Layer 1" xmlns="http://www.w3.org/2000/svg" viewBox="0 0 194 70"><defs><style>.cls-1{fill:#ebc200;}.cls-1,.cls-2,.cls-3,.cls-4{opacity:0.5;}.cls-2{fill:#dc9a40;}.cls-3{fill:#d88e0e;}.cls-5{fill:#212121;}</style></defs><title>Artboard 1</title><path id="_Path_" data-name="&lt;Path&gt;" class="cls-1" d="M.5,8.5V7.9A6.87,6.87,0,0,1,7.2,1H49.5l-28,28.3Z"/><path id="_Path_2" data-name="&lt;Path&gt;" class="cls-1" d="M21.5,29.5.5,8.5V8.1A6.7,6.7,0,0,1,7.2,1.4H49.5Z"/><path id="_Path_3" data-name="&lt;Path&gt;" class="cls-2" d="M7.2,58A7.51,7.51,0,0,1,0,50.8v-.4L21.2,29.6,49.6,58Z"/><path id="_Path_4" data-name="&lt;Path&gt;" class="cls-2" d="M49.5,57.5H7.2A6.7,6.7,0,0,1,.5,50.8v-.4l21-21Z"/><polygon id="_Path_5" data-name="&lt;Path&gt;" class="cls-3" points="0 8.5 21 29.4 0 50.5 0 8.5"/><path id="_Path_6" data-name="&lt;Path&gt;" class="cls-3" d="M21.5,29.5l-21,21V8.5Z"/><g id="_Group_" data-name="&lt;Group&gt;" class="cls-4"><path id="_Path_7" data-name="&lt;Path&gt;" class="cls-5" d="M68.2,19.3h4.4v1.1l-8.2,9.8L72.6,40v1.1H68.2l-7.4-8.9H55.7v8.9h-4V19.3h4v8.9h5.1Z"/><path id="_Compound_Path_" data-name="&lt;Compound Path&gt;" class="cls-5" d="M89.5,23.6a4.1,4.1,0,0,1,4.1,4.1V41.1H80.1A4.1,4.1,0,0,1,76,37V30.4H89.8V27.8a.22.22,0,0,0-.2-.2H75.9v-4Zm.2,13.5V34.3H79.8v2.6a.22.22,0,0,0,.2.2Z"/><path id="_Path_8" data-name="&lt;Path&gt;" class="cls-5" d="M102.1,23.6h9.7v4h-9.7a.22.22,0,0,0-.2.2V41.2h-4V27.7a4,4,0,0,1,1.2-2.9A4.07,4.07,0,0,1,102.1,23.6Z"/><path id="_Compound_Path_2" data-name="&lt;Compound Path&gt;" class="cls-5" d="M129.7,23.6a4.1,4.1,0,0,1,4.1,4.1V41.1H120.2a4.1,4.1,0,0,1-4.1-4.1V30.4H130V27.8a.22.22,0,0,0-.2-.2H116.2v-4Zm.3,13.5V34.3h-9.9v2.6a.22.22,0,0,0,.2.2Z"/><path id="_Path_9" data-name="&lt;Path&gt;" class="cls-5" d="M152,23.6a4.1,4.1,0,0,1,4.1,4.1V41.1h-4V27.7a.22.22,0,0,0-.2-.2h-9.5a.22.22,0,0,0-.2.2V41.1h-4V23.6Z"/><path id="_Path_10" data-name="&lt;Path&gt;" class="cls-5" d="M171.7,27.5h-6.8v9.4a.22.22,0,0,0,.2.2h6.6v4h-6.6a4.07,4.07,0,0,1-3-1.2,4,4,0,0,1-1.2-2.9V17.8h4v5.7h6.8Z"/><path id="_Compound_Path_3" data-name="&lt;Compound Path&gt;" class="cls-5" d="M189.3,23.6a4.1,4.1,0,0,1,4.1,4.1V41.1H179.8a4.1,4.1,0,0,1-4.1-4.1V30.4h13.8V27.8a.22.22,0,0,0-.2-.2H175.7v-4Zm.2,13.5V34.3h-9.9v2.6a.22.22,0,0,0,.2.2Z"/></g></svg>