<svg id="Layer_1" data-name="Layer 1" xmlns="http://www.w3.org/2000/svg" viewBox="0 0 640 266"><defs><style>.cls-1{font-size:100px;font-family:AgencyFB-Bold, Agency FB;font-weight:700;}.cls-1,.cls-2{fill:#f2f2f2;}.cls-3{fill:#ffe082;}.cls-4{fill:#ff6d00;}</style></defs><title>kompetition1-2</title><text class="cls-1" transform="translate(274.29 153.31)">ompetition</text><path class="cls-2" d="M468.26,179.76H228.74c-2.9,0-5.24,1.43-5.24,3.2s2.34,3.2,5.24,3.2H468.26c2.9,0,5.24-1.43,5.24-3.2S471.16,179.76,468.26,179.76Z"/><path class="cls-2" d="M477.59,65.54H296.76c-2.19,0-4,1.48-4,3.31s1.77,3.31,4,3.31H477.59c2.19,0,4-1.49,4-3.31S479.78,65.54,477.59,65.54Z"/><path class="cls-3" d="M27.81,92.91h77a3.66,3.66,0,1,0,0-7.33h-77a3.66,3.66,0,1,0,0,7.33Z"/><path class="cls-3" d="M43.49,150.62a3.67,3.67,0,0,0,3.67,3.67h77a3.67,3.67,0,0,0,0-7.33h-77A3.66,3.66,0,0,0,43.49,150.62Z"/><path class="cls-3" d="M88.58,216.22H19.36a3.66,3.66,0,1,0,0,7.33H88.58a3.66,3.66,0,1,0,0-7.33Z"/><path class="cls-3" d="M82.81,47.91h77a3.66,3.66,0,1,0,0-7.33h-77a3.66,3.66,0,1,0,0,7.33Z"/><circle class="cls-4" cx="236.43" cy="32.07" r="25.18" transform="translate(-0.55 59.77) rotate(-14.39)"/><path class="cls-4" d="M296.78,52.34a25.08,25.08,0,0,1-2.85-3.29h-.06a10.74,10.74,0,0,0-9-1.73,10.57,10.57,0,0,0-6.08,4.19L259.55,84,220.27,60.79a13.62,13.62,0,0,0-10.14-1.4l-49,12.6a10.62,10.62,0,0,0-6.91,5.68L130.4,125.33a10.49,10.49,0,1,0,18.19,10.32l22.07-44.31,18.11-4.55L142.09,180.9l.5.29-7.52,14.16L121,221.8a15.84,15.84,0,0,0-1.66,3.9c-2.62,9,1.5,19,9.19,22.44,6.71,3,14-.08,17.45-6.9l23.6-44.46.57.33,17.89-34.38L204,171.85,227,185l.43,14.17,1.37,45.28a11.88,11.88,0,0,0,.41,3.41,13.47,13.47,0,0,0,26.5-4l-2-64.64A25.19,25.19,0,0,0,250,160.1l-.53-2.08-.17,0a11.2,11.2,0,0,0-2.42-2.07l-.83-.49a25.3,25.3,0,0,0-8.93-5.28l-24.72-14.6,21.05-42.3,24.1,14.33s9.67,6.07,16.71-5.81l20-34.06,4-9.62Z"/></svg>